<svg width="511" height="359" viewBox="0 0 511 359" fill="none" xmlns="http://www.w3.org/2000/svg">
<path d="M371.909 5.63398L281.425 96.1892C273.816 103.804 261.581 103.804 253.972 96.1892C246.363 88.5743 246.363 76.3288 253.972 68.7139L266.516 56.1597C274.125 48.5448 274.125 36.2993 266.516 28.6844C258.907 21.0695 246.671 21.0695 239.063 28.6844L84.7262 183.143C77.1173 190.758 77.1173 203.003 84.7262 210.618C92.335 218.233 104.571 218.233 112.18 210.618L134.595 188.288C142.204 180.673 154.44 180.673 162.049 188.288C169.657 195.903 169.657 208.148 162.049 215.763L86.8854 290.986C79.2766 298.601 79.2766 310.846 86.8854 318.461C94.4943 326.076 106.73 326.076 114.339 318.461L157.113 275.653C164.722 268.038 176.958 268.038 184.567 275.653C192.176 283.268 192.176 295.514 184.567 303.128L184.978 302.717C177.369 310.332 177.369 322.577 184.978 330.192C192.587 337.807 204.823 337.807 212.432 330.192L287.595 254.97C295.203 247.355 307.439 247.355 315.048 254.97C322.657 262.584 322.657 274.83 315.048 282.445L271.863 325.664C264.254 333.279 264.254 345.525 271.863 353.14C279.472 360.755 291.708 360.755 299.316 353.14L473.703 178.615C481.312 171 481.312 158.755 473.703 151.14C466.094 143.525 453.858 143.525 446.25 151.14L434.631 162.768C427.022 170.383 414.786 170.383 407.177 162.768C399.568 155.153 399.568 142.907 407.177 135.293L431.957 110.493C439.566 102.878 439.566 90.6324 431.957 83.0175C424.348 75.4027 412.112 75.4027 404.504 83.0175L404.915 82.6059C397.306 90.2208 385.07 90.2208 377.461 82.6059C369.853 74.991 369.853 62.7455 377.461 55.1306L399.465 33.1093C407.074 25.4944 407.074 13.2488 399.465 5.63398C391.754 -1.87799 379.518 -1.87799 371.909 5.63398Z" fill="#8ACEFF"/>
<path d="M22.3118 216.277L11.7211 200.224C8.43075 195.285 7.81381 189.008 10.0759 183.451L13.1606 175.939C13.469 175.116 74.854 167.912 76.1907 166.986L14.4973 172.234C12.8521 172.44 11.4126 174.395 10.7957 175.939L7.71099 183.451C5.4489 188.905 6.06583 195.182 9.35615 200.224L18.5073 216.174C20.6666 219.467 25.088 226.259 57.5798 228.42C54.9064 226.362 23.8541 218.747 22.3118 216.277Z" fill="white"/>
<path d="M412.523 146.407C405.531 146.407 397.82 143.525 391.856 134.778C381.882 120.166 397.511 96.3954 406.765 82.1946L407.074 81.783C414.168 70.9781 415.197 58.2181 409.439 52.0439C404.606 47.0016 395.558 47.7219 384.556 54.1019C382.808 55.131 380.648 54.5136 379.62 52.7642C378.592 51.0148 379.209 48.8539 380.957 47.8248C401.007 36.1967 411.186 43.4 414.682 47.0016C422.805 55.6455 422.188 71.9043 413.14 85.5905L412.832 86.0021C405.634 97.0128 390.519 119.857 397.82 130.559C407.999 145.583 423.011 136.528 424.656 135.499C426.301 134.47 428.563 134.881 429.592 136.528C430.62 138.174 430.209 140.438 428.563 141.467C424.862 144.04 418.898 146.407 412.523 146.407Z" fill="#013A51"/>
<path d="M500.439 184.171H431.445C426.201 184.171 421.883 179.849 421.883 174.601V80.0329C421.883 74.7848 426.201 70.4629 431.445 70.4629H500.439C505.683 70.4629 510.002 74.7848 510.002 80.0329V174.601C510.002 179.952 505.683 184.171 500.439 184.171Z" fill="#013A51"/>
<path d="M482.65 184.172H433.09C428.566 184.172 424.864 180.468 424.864 175.94V78.7987C424.864 74.2709 428.566 70.5664 433.09 70.5664H482.65C487.174 70.5664 490.876 74.2709 490.876 78.7987V175.94C490.979 180.468 487.277 184.172 482.65 184.172Z" fill="white"/>
<path d="M462.494 119.342C464.028 119.342 465.271 118.098 465.271 116.563C465.271 115.029 464.028 113.785 462.494 113.785C460.961 113.785 459.718 115.029 459.718 116.563C459.718 118.098 460.961 119.342 462.494 119.342Z" fill="#013A51"/>
<path d="M471.646 119.342C473.179 119.342 474.422 118.098 474.422 116.563C474.422 115.029 473.179 113.785 471.646 113.785C470.113 113.785 468.87 115.029 468.87 116.563C468.87 118.098 470.113 119.342 471.646 119.342Z" fill="#013A51"/>
<path d="M480.695 119.342C482.228 119.342 483.471 118.098 483.471 116.563C483.471 115.029 482.228 113.785 480.695 113.785C479.162 113.785 477.919 115.029 477.919 116.563C477.919 118.098 479.162 119.342 480.695 119.342Z" fill="#013A51"/>
<path d="M435.043 119.342C436.576 119.342 437.819 118.098 437.819 116.563C437.819 115.029 436.576 113.785 435.043 113.785C433.509 113.785 432.266 115.029 432.266 116.563C432.266 118.098 433.509 119.342 435.043 119.342Z" fill="#013A51"/>
<path d="M444.195 119.342C445.728 119.342 446.971 118.098 446.971 116.563C446.971 115.029 445.728 113.785 444.195 113.785C442.662 113.785 441.419 115.029 441.419 116.563C441.419 118.098 442.662 119.342 444.195 119.342Z" fill="#013A51"/>
<path d="M453.347 119.342C454.88 119.342 456.123 118.098 456.123 116.563C456.123 115.029 454.88 113.785 453.347 113.785C451.814 113.785 450.571 115.029 450.571 116.563C450.571 118.098 451.814 119.342 453.347 119.342Z" fill="#013A51"/>
<path d="M490.876 85.2812H424.864V109.052H490.876V85.2812Z" fill="#013A51"/>
<path d="M456.121 132.719H432.369V165.957H456.121V132.719Z" fill="#013A51"/>
<path d="M483.469 132.719H459.717V147.537H483.469V132.719Z" fill="#013A51"/>
<path d="M483.469 151.242H459.717V166.06H483.469V151.242Z" fill="#013A51"/>
<path d="M464.862 161.429C466.395 161.429 467.638 160.186 467.638 158.651C467.638 157.117 466.395 155.873 464.862 155.873C463.328 155.873 462.085 157.117 462.085 158.651C462.085 160.186 463.328 161.429 464.862 161.429Z" fill="white"/>
<path d="M479.562 157.725H471.233C470.617 157.725 470.102 157.21 470.102 156.593C470.102 155.975 470.617 155.461 471.233 155.461H479.562C480.179 155.461 480.693 155.975 480.693 156.593C480.693 157.21 480.179 157.725 479.562 157.725Z" fill="white"/>
<path d="M478.02 161.84H471.233C470.617 161.84 470.102 161.325 470.102 160.708C470.102 160.091 470.617 159.576 471.233 159.576H478.02C478.637 159.576 479.151 160.091 479.151 160.708C479.151 161.325 478.637 161.84 478.02 161.84Z" fill="white"/>
<path d="M443.165 110.697H438.743L451.802 82.3984H456.223L443.165 110.697Z" fill="white"/>
<path d="M455.297 110.697H446.969L460.027 82.3984H468.356L455.297 110.697Z" fill="white"/>
<path d="M104.056 201.254H87.0898V257.439H104.056V201.254Z" fill="#013A51"/>
<path d="M122.152 240.049C122.152 240.049 127.705 241.592 131.304 238.299C131.304 238.299 134.697 238.402 141.894 240.46C141.894 240.46 148.064 245.091 168.114 245.4C186.622 245.709 230.116 244.165 236.902 243.959C237.416 243.959 238.033 243.65 238.342 243.239L240.501 240.975C241.015 240.46 241.632 240.152 242.352 240.152L255.307 240.255C256.027 240.255 256.85 240.563 257.364 241.078L261.271 244.474C261.888 245.091 262.813 245.297 263.636 245.297H268.469C269.188 245.297 269.805 245.503 270.319 245.914C270.936 246.429 271.656 246.635 272.376 246.635H298.493L349.39 240.152L355.354 240.049C356.896 240.049 358.335 240.666 359.261 241.901L359.569 242.313C360.597 243.548 362.037 244.165 363.579 244.165L382.601 244.062V218.336L347.847 186.436L282.041 182.834L223.432 199.299L188.987 207.017L114.955 184.892L76.088 176.66C76.088 176.66 46.0639 186.951 41.4369 193.639C36.8099 200.328 55.9348 228.215 55.9348 228.215L65.2917 229.553L122.152 240.049Z" fill="#013A51"/>
<path d="M418.486 201.254H401.52C387.947 201.254 376.945 212.265 376.945 225.848V232.845C376.945 246.429 387.947 257.439 401.52 257.439H418.486C432.058 257.439 443.06 246.429 443.06 232.845V225.848C443.06 212.265 432.058 201.254 418.486 201.254Z" fill="#013A51"/>
<path d="M205.028 201.254H188.063C174.49 201.254 163.488 212.265 163.488 225.848V232.845C163.488 246.429 174.49 257.439 188.063 257.439H205.028C218.601 257.439 229.603 246.429 229.603 232.845V225.848C229.603 212.265 218.601 201.254 205.028 201.254Z" fill="#013A51"/>
<path d="M330.469 257.543C316.897 257.543 305.895 246.532 305.895 232.949V225.951C305.895 212.368 316.897 201.357 330.469 201.357C344.042 201.357 355.044 212.368 355.044 225.951V232.949C355.044 246.429 344.042 257.543 330.469 257.543Z" fill="#013A51"/>
<path d="M330.472 201.254H313.506V257.439H330.472V201.254Z" fill="#013A51"/>
<path d="M104.057 257.543C90.4844 257.543 79.4824 246.532 79.4824 232.949V225.951C79.4824 212.368 90.4844 201.357 104.057 201.357C117.63 201.357 128.631 212.368 128.631 225.951V232.949C128.734 246.429 117.732 257.543 104.057 257.543Z" fill="#013A51"/>
<path d="M486.453 184.275C486.248 183.246 486.042 182.114 485.733 180.673C484.191 173.676 479.05 174.293 479.05 174.293L436.482 172.647C435.762 172.647 435.042 172.235 434.528 171.618C432.369 168.942 429.592 169.148 429.592 169.148L342.605 165.444L335.613 165.135C334.276 165.032 333.042 164.518 332.117 163.489C326.359 157.417 304.972 135.087 295.615 129.119C284.819 122.224 251.196 123.974 191.97 123.459C186.212 123.459 180.762 123.459 175.621 123.768C175.004 123.768 174.387 123.768 173.771 123.871C173.051 123.871 172.228 123.974 171.508 123.974C170.686 123.974 169.966 124.076 169.246 124.076C168.527 124.076 167.704 124.179 166.984 124.179C166.264 124.282 165.442 124.282 164.722 124.385C163.797 124.488 162.871 124.591 161.946 124.694C161.432 124.797 160.918 124.797 160.404 124.9C159.787 125.003 159.067 125.003 158.45 125.105C157.833 125.208 157.216 125.208 156.599 125.311C155.16 125.517 153.823 125.62 152.383 125.826C151.458 125.929 150.43 126.134 149.504 126.237C148.579 126.443 147.654 126.546 146.728 126.752C145.803 126.958 144.877 127.061 144.055 127.266C143.129 127.472 142.307 127.575 141.484 127.781C140.559 127.987 139.736 128.09 138.914 128.295C138.502 128.398 138.194 128.501 137.783 128.501C136.652 128.81 135.521 129.016 134.39 129.324C133.361 129.633 132.23 129.839 131.305 130.148C122.668 132.515 117.218 135.087 114.236 136.631C114.134 136.734 113.928 136.734 113.825 136.836C112.283 137.66 111.563 138.174 111.563 138.174L108.992 140.232L78.1457 165.444C77.9401 165.547 77.7345 165.752 77.5288 165.855C77.3232 165.958 77.1175 166.061 77.0147 166.164C76.8091 166.267 76.6034 166.37 76.3978 166.473C76.1921 166.576 75.9865 166.679 75.7808 166.781C75.1639 166.987 74.4441 167.193 73.7244 167.296L16.5552 172.956C14.91 173.161 13.4705 174.19 12.7507 175.734L9.66607 183.246C7.40398 188.7 8.02091 194.977 11.3112 200.019L21.9019 216.072C24.5753 220.188 28.8938 223.07 33.8293 223.893L49.5611 226.671L57.17 228.009C58.6095 228.318 59.9462 227.186 59.9462 225.642V221.732C59.9462 207.017 71.5651 194.565 86.2687 194.36C93.8776 194.257 100.767 197.241 105.702 202.18C110.535 207.017 113.517 213.705 113.517 221.115V228.832C113.517 231.611 115.573 234.08 118.349 234.286C121.125 234.492 122.976 234.698 123.49 234.698H140.456H275.77C275.77 234.698 279.883 234.801 286.361 234.801V220.497C286.361 205.782 297.98 193.331 312.684 193.125C320.292 193.022 327.181 196.006 332.117 200.945C336.95 205.782 339.931 212.471 339.931 219.88V227.597C339.931 230.17 342.399 232.125 344.97 231.714L456.223 231.405C458.074 231.405 459.822 230.788 461.262 229.553L471.544 219.159C472.264 218.542 472.572 217.513 472.469 216.587C472.367 215.969 472.469 215.455 472.778 214.837L484.705 192.199C486.453 190.038 486.865 187.156 486.453 184.275ZM220.143 165.238H238.446C238.549 165.238 238.651 165.238 238.754 165.238L239.577 166.267C240.194 167.193 239.577 168.428 238.446 168.428H220.246V165.238H220.143ZM152.795 165.238H217.367V168.428H152.795V165.238ZM126.781 163.797C126.781 163.694 126.884 163.591 126.986 163.489C127.398 164.415 128.323 165.238 130.379 165.238H150.224V168.428H130.379C125.547 168.325 126.781 163.797 126.781 163.797Z" fill="#69BDF9"/>
<path d="M112 174L377.516 175.981C379.129 175.994 380.697 176.522 381.988 177.491V177.491C383.294 178.47 384.883 179 386.516 179H429.122M429.122 179L431.212 180.617C432.371 181.514 433.795 182 435.26 182H435.898C437.244 182 438.535 181.465 439.486 180.514V180.514C440.454 179.546 441.772 179.01 443.141 179.028L473.637 179.429C476.986 179.474 480.092 181.192 481.908 184.007L489 195M429.122 179L425.647 175.878C423.935 174.34 421.745 173.439 419.446 173.328L278 166.5" stroke="#013A51" stroke-width="2" stroke-linecap="round"/>
<path d="M335.609 165.237C334.273 165.134 333.039 164.62 332.113 163.591C326.355 157.519 304.968 135.189 295.612 129.221C287.9 124.281 268.364 123.767 235.975 123.767C229.702 123.767 223.019 123.767 215.821 123.767C213.971 123.767 212.12 123.767 210.166 123.767C204.408 123.767 198.342 123.767 191.967 123.664C191.555 123.664 191.144 123.664 190.733 123.664C185.386 123.664 180.348 123.767 175.618 123.973C175.001 123.973 174.384 123.973 173.767 124.076C173.047 124.076 172.225 124.179 171.505 124.179C170.682 124.179 169.963 124.281 169.243 124.281C168.523 124.281 167.701 124.384 166.981 124.384C166.261 124.487 165.438 124.487 164.719 124.59C163.793 124.693 162.868 124.796 161.942 124.899C161.428 125.002 160.914 125.002 160.4 125.105C159.783 125.208 159.063 125.208 158.447 125.311C157.83 125.413 157.213 125.413 156.596 125.516C155.156 125.722 153.82 125.825 152.38 126.031C151.455 126.134 150.426 126.34 149.501 126.442C148.576 126.648 147.65 126.751 146.725 126.957C145.799 127.163 144.874 127.266 144.051 127.472C143.126 127.677 142.303 127.78 141.481 127.986C140.555 128.192 139.733 128.295 138.91 128.501C138.499 128.603 138.191 128.706 137.779 128.706C136.648 129.015 135.517 129.221 134.386 129.53C133.358 129.838 132.227 130.044 131.301 130.353C122.664 132.72 117.215 135.292 114.233 136.836C114.13 136.939 113.924 136.939 113.822 137.042C112.279 137.865 111.56 138.379 111.56 138.379L108.989 140.437L78.1423 165.649C77.9366 165.752 77.731 165.957 77.5253 166.06C77.3197 166.163 77.114 166.266 77.0112 166.369C76.8056 166.472 76.5999 166.575 76.3943 166.678C76.1886 166.781 75.983 166.884 75.7773 166.987H119.785C119.785 166.987 122.664 169.971 126.983 170.177C127.703 170.177 131.301 170.177 136.854 170.177C138.191 170.177 139.63 170.177 141.275 170.177C166.364 170.177 224.561 170.177 243.789 170.177C245.229 170.177 246.36 170.177 247.285 170.177C247.285 170.177 255.305 166.987 271.14 166.987L342.087 165.546L335.609 165.237ZM130.273 165.237C128.32 165.237 127.291 164.414 126.88 163.488C126.263 162.15 126.674 160.606 126.674 160.606C141.584 129.632 148.781 130.044 148.781 130.044H149.912V165.134H130.273V165.237ZM152.791 165.237V130.147H213.148C214.793 130.147 216.335 130.97 217.261 132.205L217.467 132.411V165.134H152.791V165.237ZM220.14 165.237V136.321L222.916 140.129L239.471 163.076C240.087 163.899 239.573 164.928 238.648 165.134C238.545 165.134 238.442 165.134 238.339 165.134H220.14V165.237Z" fill="white"/>
<path d="M238.754 165.135C238.651 165.135 238.548 165.135 238.446 165.135H220.246V136.219L239.577 162.974C240.091 163.9 239.577 164.929 238.754 165.135Z" fill="#013A51"/>
<path d="M150.123 130.148V165.238H130.278C128.324 165.238 127.296 164.415 126.885 163.489C126.268 162.151 126.679 160.608 126.679 160.608C141.588 129.634 148.786 130.045 148.786 130.045H150.123V130.148Z" fill="#013A51"/>
<path d="M217.469 132.412V165.135H152.896V130.045H213.253C214.898 130.045 216.441 130.868 217.366 132.103L217.469 132.412Z" fill="#013A51"/>
<path d="M87.0921 257.543C73.5196 257.543 62.5176 246.532 62.5176 232.949V225.951C62.5176 212.368 73.5196 201.357 87.0921 201.357C100.665 201.357 111.667 212.368 111.667 225.951V232.949C111.769 246.429 100.767 257.543 87.0921 257.543Z" fill="#013A51"/>
<path d="M313.506 257.543C299.934 257.543 288.932 246.532 288.932 232.949V225.951C288.932 212.368 299.934 201.357 313.506 201.357C327.079 201.357 338.081 212.368 338.081 225.951V232.949C338.081 246.429 327.079 257.543 313.506 257.543Z" fill="#013A51"/>
<path d="M3.49596 190.758L9.97377 190.963C11.3105 190.963 12.5443 191.787 13.0584 192.918C15.3205 197.858 20.8729 211.03 18.6108 212.573C15.8346 214.528 0 198.887 0 195.903L0.102822 193.742C0.205645 191.992 1.74798 190.655 3.49596 190.758Z" fill="white"/>
<path d="M87.0911 247.663C78.2484 247.663 71.0508 240.46 71.0508 231.61V227.082C71.0508 218.233 78.2484 211.029 87.0911 211.029C95.9338 211.029 103.131 218.233 103.131 227.082V231.61C103.131 240.46 95.9338 247.663 87.0911 247.663Z" fill="white"/>
<path d="M313.505 247.663C304.662 247.663 297.465 240.46 297.465 231.61V227.082C297.465 218.233 304.662 211.029 313.505 211.029C322.348 211.029 329.545 218.233 329.545 227.082V231.61C329.443 240.46 322.348 247.663 313.505 247.663Z" fill="white"/>
<path d="M87.0901 239.638C82.1546 239.638 78.1445 235.625 78.1445 230.685V228.113C78.1445 223.173 82.1546 219.16 87.0901 219.16C92.0256 219.16 96.0356 223.173 96.0356 228.113V230.685C96.1384 235.625 92.1284 239.638 87.0901 239.638Z" fill="#013A51"/>
<path d="M90.6879 219.879C87.5004 221.217 85.2383 224.407 85.2383 228.111V230.684C85.2383 234.388 87.5004 237.578 90.6879 238.916C93.8754 237.578 96.1374 234.388 96.1374 230.684V228.111C96.1374 224.407 93.8754 221.217 90.6879 219.879Z" fill="#69BDF9"/>
<path d="M313.506 239.638C308.571 239.638 304.561 235.625 304.561 230.685V228.113C304.561 223.173 308.571 219.16 313.506 219.16C318.442 219.16 322.452 223.173 322.452 228.113V230.685C322.452 235.625 318.442 239.638 313.506 239.638Z" fill="#013A51"/>
<path d="M317.002 219.879C313.815 221.217 311.553 224.407 311.553 228.111V230.684C311.553 234.388 313.815 237.578 317.002 238.916C320.19 237.578 322.452 234.388 322.452 230.684V228.111C322.452 224.407 320.19 221.217 317.002 219.879Z" fill="#69BDF9"/>
<path d="M327.901 162.15L297.363 132.822C295.512 131.073 293.147 130.146 290.68 130.146H260.553H254.897H241.839H231.043C230.323 130.146 229.809 130.352 229.295 130.764C228.369 131.587 228.061 133.028 228.883 134.16L249.962 163.899C250.785 165.031 252.018 165.751 253.458 165.648L262.198 165.545L275.153 165.34L288.006 165.134L293.559 165.031L326.77 164.619C328.313 164.722 328.929 163.076 327.901 162.15Z" fill="#013A51"/>
<path d="M130.895 152.581L135.727 165.135H145.804L136.961 142.188C135.11 144.966 133.054 148.362 130.895 152.581Z" fill="#69BDF9"/>
<path d="M183.126 165.237H173.05L159.58 130.146H169.657L183.126 165.237Z" fill="#69BDF9"/>
<path d="M191.868 165.237H187.55L174.08 130.146H178.399L191.868 165.237Z" fill="#69BDF9"/>
<path d="M318.03 164.928L308.468 165.031L270.629 130.146H280.191L318.03 164.928Z" fill="#69BDF9"/>
<path d="M384.247 184.275H423.114C426.199 184.275 428.667 186.745 428.667 189.832V200.74C428.667 203.313 426.61 205.371 424.04 205.371H384.145V184.275H384.247Z" fill="#013A51"/>
<path d="M326.256 164.825H322.246L284.51 130.146H288.52L326.256 164.825Z" fill="#69BDF9"/>
<path d="M377.049 190.758H383.835C385.275 190.758 386.509 191.89 386.509 193.433V199.608C386.509 202.798 389.079 205.473 392.37 205.473H471.132C473.188 205.473 475.039 204.444 476.067 202.695L480.591 194.977C481.517 193.433 483.059 192.507 484.807 192.507H486.349C487.892 192.507 489.023 194.154 488.406 195.594L483.162 207.943C482.545 209.28 481.722 210.515 480.694 211.647C478.535 213.808 475.553 215.043 472.468 215.043H387.229C380.134 215.043 374.479 209.28 374.479 202.283V193.536C374.479 191.89 375.61 190.758 377.049 190.758Z" fill="white"/>
<path d="M402.446 235.006C401.829 235.006 401.314 234.8 400.8 234.491C399.361 233.565 398.95 231.61 399.875 230.272L412.214 210.927C413.139 209.486 415.093 209.074 416.429 210C417.869 210.927 418.28 212.882 417.355 214.219L405.016 233.565C404.399 234.491 403.474 235.006 402.446 235.006Z" fill="white"/>
<path d="M438.947 235.006C438.331 235.006 437.816 234.8 437.302 234.491C435.863 233.565 435.452 231.61 436.377 230.272L448.818 210.927C449.744 209.486 451.697 209.074 453.034 210C454.474 210.927 454.885 212.882 453.96 214.219L441.518 233.565C440.901 234.491 439.976 235.006 438.947 235.006Z" fill="white"/>
<path d="M471.234 205.371C473.29 205.371 475.141 204.342 476.169 202.592L480.694 194.874C481.002 194.257 481.413 193.845 481.927 193.434L475.861 186.539C474.627 185.099 472.776 184.275 470.925 184.275H440.182L440.284 198.373C440.284 201.152 438.948 203.724 436.686 205.371H471.234V205.371Z" fill="#013A51"/>
<path d="M428.667 189.832V200.739C428.667 203.312 426.611 205.37 424.04 205.37H428.873C430.004 204.135 430.724 202.489 430.724 200.739V189.832C430.724 185.613 427.331 182.217 423.115 182.217H384.248V184.275H423.115C426.2 184.275 428.667 186.745 428.667 189.832Z" fill="white"/>
<path d="M483.471 191.993L477.404 185.098C475.759 183.246 473.394 182.217 470.926 182.217H440.285V184.275H470.823C472.674 184.275 474.525 185.098 475.759 186.539L481.825 193.433C481.311 193.845 480.9 194.257 480.592 194.874L476.067 202.592C475.039 204.341 473.188 205.37 471.132 205.37H476.376C476.89 204.856 477.404 204.238 477.815 203.621L482.34 195.903C482.545 195.594 482.751 195.286 483.059 195.08L484.807 193.742L483.471 191.993Z" fill="white"/>
<path d="M436.174 201.255H434.528C433.603 201.255 432.883 200.535 432.883 199.609V187.98C432.883 187.054 433.603 186.334 434.528 186.334H436.174C437.099 186.334 437.819 187.054 437.819 187.98V199.609C437.922 200.535 437.099 201.255 436.174 201.255Z" fill="white"/>
<path d="M312.68 154.227C312.372 154.227 312.166 154.227 311.857 154.33C312.372 153.507 312.68 152.58 312.68 151.551C312.68 148.67 310.315 146.303 307.436 146.303C306.614 146.303 305.894 146.509 305.174 146.818C305.277 146.406 305.38 145.892 305.38 145.48C305.38 144.863 305.277 144.245 305.071 143.731C308.464 142.599 310.829 139.409 310.829 135.601C310.829 132.206 308.876 129.324 305.997 127.884C305.997 127.575 305.997 127.266 305.997 126.957C305.997 125.62 305.688 124.385 305.174 123.253C308.053 121.915 310.109 118.931 310.109 115.432C310.109 115.226 310.109 114.918 310.109 114.712C312.372 113.168 313.914 110.493 313.914 107.612C313.914 107.2 313.914 106.891 313.811 106.48C315.251 105.245 316.176 103.495 316.176 101.437C316.176 100.614 315.97 99.7909 315.662 99.0705C317.307 98.4531 318.438 96.8067 318.438 94.9544C318.438 92.4847 316.484 90.5295 314.017 90.5295C313.194 90.5295 312.372 90.8382 311.652 91.2499C310.521 90.4266 309.184 89.9121 307.642 89.9121C305.174 89.9121 302.912 91.3528 301.884 93.4108C300.753 92.8963 299.622 92.5876 298.285 92.5876C294.686 92.5876 291.704 94.9544 290.573 98.1444C290.162 98.1444 289.751 98.0415 289.237 98.0415C284.198 98.0415 279.983 101.129 278.132 105.451C276.589 104.524 274.739 103.907 272.682 103.907C266.821 103.907 262.091 108.641 262.091 114.506V114.609C261.783 114.609 261.475 114.609 261.166 114.609C257.67 114.609 254.585 116.667 253.043 119.548C249.547 120.474 246.977 123.665 246.977 127.472C246.977 132 250.678 135.601 255.1 135.601C255.819 135.601 256.436 135.498 257.053 135.293C258.493 137.968 261.372 139.82 264.662 139.82C264.868 145.171 269.289 149.493 274.739 149.493C275.253 149.493 275.767 149.493 276.281 149.39C276.898 151.037 278.029 152.375 279.571 153.198C278.851 154.124 278.337 155.256 278.337 156.491C278.337 158.446 279.468 160.195 281.114 161.121C279.571 162.253 278.543 164.106 278.543 166.267C278.543 169.765 281.422 172.647 284.918 172.647C287.18 172.647 289.237 171.412 290.368 169.56C291.293 170.691 292.732 171.515 294.378 171.515C294.995 171.515 295.509 171.412 296.023 171.206C296.948 174.19 299.622 176.351 302.912 176.351C306.922 176.351 310.109 173.161 310.109 169.148C310.109 168.222 309.904 167.399 309.595 166.575C310.418 166.987 311.343 167.193 312.269 167.193C315.868 167.193 318.644 164.311 318.644 160.813C318.644 157.314 316.176 154.227 312.68 154.227ZM282.142 132C282.347 132 282.553 132 282.759 132C283.89 132 285.021 131.794 286.049 131.588C287.591 134.161 290.47 135.91 293.761 135.91C293.864 137.762 294.48 139.409 295.509 140.747C294.583 141.57 293.864 142.599 293.555 143.834C293.349 143.834 293.247 143.731 293.041 143.731C292.116 143.731 291.19 144.039 290.368 144.451C289.545 142.187 287.694 140.438 285.329 139.82C285.329 139.615 285.329 139.512 285.329 139.306C285.329 136.527 284.095 133.852 282.142 132ZM301.986 162.048C302.089 161.533 302.192 161.019 302.192 160.504C302.192 159.475 301.884 158.446 301.37 157.623C302.398 157.108 303.323 156.388 303.837 155.359C304.763 156.285 305.997 156.799 307.436 156.799C307.539 156.799 307.539 156.799 307.642 156.799C306.819 157.931 306.202 159.269 306.202 160.813C306.202 161.533 306.305 162.253 306.511 162.871C305.482 162.356 304.454 162.048 303.22 162.048C302.809 161.842 302.398 161.945 301.986 162.048Z" fill="white"/>
<path d="M371.497 171.205C362.86 171.205 355.765 178.203 355.765 186.949C355.765 178.306 348.773 171.205 340.033 171.205C348.67 171.205 355.765 164.208 355.765 155.461C355.765 164.208 362.86 171.205 371.497 171.205Z" fill="white"/>
<path d="M257.467 137.762C250.989 137.762 245.745 143.01 245.745 149.493C245.745 143.01 240.501 137.762 234.023 137.762C240.501 137.762 245.745 132.514 245.745 126.031C245.745 132.514 250.989 137.762 257.467 137.762Z" fill="white"/>
<path d="M328.209 149.492C323.171 149.492 319.058 153.609 319.058 158.548C319.058 153.506 314.945 149.492 310.01 149.492C315.048 149.492 319.058 145.376 319.058 140.334C319.058 145.479 323.171 149.492 328.209 149.492Z" fill="white"/>
<path d="M247.288 191.788C239.885 191.788 233.922 197.756 233.922 205.165C233.922 197.756 227.958 191.788 220.555 191.788C227.958 191.788 233.922 185.819 233.922 178.41C233.922 185.716 239.885 191.788 247.288 191.788Z" fill="white"/>
<path d="M383.837 48.9574L383.529 48.4429C382.192 46.179 379.21 45.4586 376.948 46.8993L339.007 70.1555C337.773 70.9788 337.259 72.6252 338.081 73.8601C338.904 75.1978 338.493 76.8443 337.156 77.6675L328.313 83.1214L328.21 83.0185C328.005 82.6069 327.491 82.504 326.977 82.7098L314.432 88.9869C313.507 89.5014 313.198 90.6334 313.713 91.5595L317.003 97.0134C317.517 97.9395 318.751 98.1453 319.573 97.5279L330.884 89.1927C331.295 88.884 331.398 88.3695 331.089 87.9579L330.987 87.855L361.731 69.0236C365.946 76.021 374.995 76.4327 380.855 72.831C384.249 70.773 386.511 67.48 387.23 63.5697C388.156 58.939 386.922 54.1026 383.837 48.9574ZM381.781 62.3348C381.267 65.2162 379.416 66.8626 378.079 67.7887C374.48 69.9497 369.031 69.7439 366.666 65.8336L373.247 61.8203C374.481 61.1 374.789 59.5565 374.069 58.3216C373.247 56.9839 373.658 55.1316 374.995 54.3084L378.902 51.9416C381.37 55.749 382.295 59.3506 381.781 62.3348Z" fill="#013A51"/>
<path d="M370.675 68.8175C370.572 68.8175 370.572 68.8175 370.47 68.7148C370.572 68.7148 370.675 68.8175 370.675 68.8175Z" fill="#013A51"/>
<path d="M374.274 69.0234C374.171 69.0234 374.171 69.0234 374.068 69.0234C374.171 69.1261 374.171 69.1261 374.274 69.0234Z" fill="#013A51"/>
<path d="M368.513 67.6841C368.513 67.6841 368.411 67.684 368.411 67.582C368.411 67.684 368.411 67.6841 368.513 67.6841Z" fill="#013A51"/>
<path d="M369.339 68.2012C369.442 68.2012 369.442 68.3038 369.544 68.3038C369.442 68.3038 369.339 68.3038 369.339 68.2012Z" fill="#013A51"/>
<path d="M375.3 68.9207H375.403H375.505C375.505 68.8181 375.403 68.8181 375.3 68.9207Z" fill="#013A51"/>
<path d="M367.384 66.7598C367.487 66.8624 367.487 66.8624 367.589 66.965C367.487 66.8624 367.487 66.7598 367.384 66.7598Z" fill="#013A51"/>
<path d="M376.944 68.4062C376.944 68.4062 376.842 68.4062 376.842 68.5083C376.842 68.4062 376.842 68.4062 376.944 68.4062Z" fill="#013A51"/>
<path d="M330.06 84.6648L339.211 79.0055L338.388 77.9766L329.34 83.6359L330.06 84.6648Z" fill="white"/>
<path d="M328.21 84.665L328.004 83.8418L315.152 90.2214C315.049 90.2214 315.049 90.3243 315.049 90.4272C315.049 90.4272 315.049 90.5301 315.049 90.633C315.871 91.9706 317.517 92.2793 318.853 91.4561L328.21 84.665Z" fill="white"/>
<path d="M341.474 77.2553C340.857 75.8146 341.988 74.6827 341.474 73.1391C340.96 71.5956 375.817 49.3684 378.079 47.9277C377.873 48.0306 377.771 48.0306 377.565 48.1335L339.623 71.3898C339.315 71.5956 339.109 71.8014 339.109 72.1101C339.109 72.3159 339.007 72.6246 339.212 72.9333C339.829 73.8595 340.035 75.0943 339.726 76.2262C339.726 76.3291 339.623 76.4321 339.623 76.6379C339.418 77.2553 339.623 77.9756 340.035 78.4901C340.652 79.2105 341.68 79.3134 342.502 78.9017L343.428 78.2843C343.119 78.2843 341.988 78.3872 341.474 77.2553Z" fill="white"/>
<path d="M384.76 54.6166C384.76 54.6166 387.331 66.7592 377.768 72.4189C378.591 72.1102 379.413 71.6986 380.236 71.287C383.321 69.4347 385.274 66.4505 385.891 63.0547C386.302 60.3792 385.994 57.4979 384.863 54.5137L384.76 54.6166Z" fill="white"/>
<path d="M126.984 163.488C126.881 163.591 126.881 163.694 126.779 163.797C126.779 163.797 126.676 164.311 126.676 165.032C127.087 165.135 127.499 165.135 127.91 165.135H130.275C128.321 165.238 127.396 164.414 126.984 163.488Z" fill="#013A51"/>
<path d="M276.283 234.904H273.918C274.021 234.904 278.031 235.007 284.509 235.007C279.368 235.007 276.283 234.904 276.283 234.904Z" fill="#013A51"/>
<path d="M239.783 262.069C354.153 262.069 446.868 260.042 446.868 257.541C446.868 255.041 354.153 253.014 239.783 253.014C125.414 253.014 32.6992 255.041 32.6992 257.541C32.6992 260.042 125.414 262.069 239.783 262.069Z" fill="#013A51"/>
<rect x="182" y="215" width="108" height="2" rx="1" fill="white"/>
<rect x="160" y="215" width="19" height="2" rx="1" fill="white"/>
<rect x="154" y="184" width="17" height="2" rx="1" fill="white"/>
<rect x="71" y="173" width="36" height="2" rx="1" fill="#013A51"/>
<rect x="13" y="173" width="36" height="2" rx="1" fill="#013A51"/>
<rect x="336" y="215" width="38" height="2" rx="1" fill="white"/>
<rect x="342" y="193" width="23" height="2" rx="1" fill="white"/>
<rect x="110" y="215" width="43" height="2" rx="1" fill="white"/>
<rect x="19" y="215" width="45" height="2" rx="1" fill="white"/>
<path d="M66.9369 173.985C59.945 173.985 54.2897 179.645 54.2897 186.642C54.2897 179.645 48.6345 173.985 41.6426 173.985C48.6345 173.985 54.2897 168.326 54.2897 161.328C54.2897 168.326 59.945 173.985 66.9369 173.985Z" fill="white"/>
</svg>
